<?xml version="1.0" encoding="utf-8"?>
<!-- Generator: Adobe Illustrator 24.0.1, SVG Export Plug-In . SVG Version: 6.00 Build 0)  -->
<svg version="1.1" id="Layer_1" xmlns="http://www.w3.org/2000/svg" xmlns:xlink="http://www.w3.org/1999/xlink" x="0px" y="0px"
	 width="24px" height="24px" viewBox="0 0 24 24" style="enable-background:new 0 0 24 24;" xml:space="preserve">
<path d="M12,7c-0.6,0-1,0.4-1,1v4c0,0.6,0.4,1,1,1s1-0.4,1-1V8C13,7.4,12.6,7,12,7z M12,15c-0.6,0-1,0.4-1,1s0.4,1,1,1s1-0.4,1-1
	S12.6,15,12,15z M21.7,7.6l-5.3-5.3C16.2,2.1,16,2,15.7,2H8.3C8,2,7.8,2.1,7.6,2.3L2.3,7.6C2.1,7.8,2,8,2,8.3v7.5
	c0,0.3,0.1,0.5,0.3,0.7l5.3,5.3C7.8,21.9,8,22,8.3,22h7.5c0.3,0,0.5-0.1,0.7-0.3l5.3-5.3c0.2-0.2,0.3-0.4,0.3-0.7V8.3
	C22,8,21.9,7.8,21.7,7.6z M20,15.3L15.3,20H8.7L4,15.3V8.7L8.7,4h6.6L20,8.7V15.3z"/>
</svg>
