<svg xmlns="http://www.w3.org/2000/svg" viewBox="0 0 17 16">
<path d="M16.5,8c0-1.5-0.4-3-1.3-4.3c-0.8-1.3-2-2.3-3.4-3c-1.4-0.6-2.9-0.9-4.4-0.7C5.9,0.3,4.5,1,3.3,2c-1.2,1-2,2.3-2.5,3.8
	c-0.4,1.5-0.5,3,0,4.5C1.2,11.7,2,13,3.2,14c1.1,1,2.6,1.7,4.1,1.9v-5.6h-2V8h2V6.3c0-0.4,0-0.8,0.1-1.2C7.5,4.7,7.7,4.3,8,4
	c0.3-0.3,0.6-0.5,1-0.7c0.4-0.1,0.8-0.2,1.2-0.2c0.6,0,1.2,0.1,1.8,0.2v2h-1c-0.2,0-0.3,0-0.5,0c-0.2,0.1-0.3,0.1-0.4,0.3
	C10,5.7,9.9,5.9,9.8,6C9.8,6.2,9.7,6.4,9.8,6.6v1.5H12l-0.4,2.3H9.8V16c1.9-0.3,3.6-1.3,4.8-2.7C15.8,11.8,16.5,10,16.5,8z"/>
</svg>
