<svg xmlns="http://www.w3.org/2000/svg" viewBox="0 0 17 16">
<path d="M16.2,6.5H8.5v3.3h4.3c-0.7,2.2-2.4,2.9-4.4,2.9c-0.8,0-1.5-0.2-2.2-0.5c-0.7-0.4-1.3-0.9-1.7-1.5c-0.4-0.6-0.7-1.3-0.8-2.1
	c-0.1-0.8,0-1.5,0.2-2.2C4.3,5.7,4.7,5,5.3,4.5c0.6-0.5,1.2-0.9,2-1.1c0.7-0.2,1.5-0.2,2.2,0c0.7,0.2,1.4,0.5,2,1l2.4-2.3
	c-1-0.9-2.1-1.5-3.4-1.9C9.3-0.1,8-0.1,6.7,0.2C5.4,0.5,4.2,1.1,3.3,1.9C2.3,2.8,1.5,3.9,1,5.1C0.6,6.3,0.4,7.6,0.5,8.9
	c0.1,1.3,0.6,2.5,1.3,3.6c0.7,1.1,1.7,2,2.9,2.6C5.9,15.7,7.2,16,8.5,16C12.9,16,16.9,13.1,16.2,6.5z"/>
</svg>
