<?xml version="1.0" encoding="utf-8"?>
<!-- Generator: Adobe Illustrator 24.0.1, SVG Export Plug-In . SVG Version: 6.00 Build 0)  -->
<svg version="1.1" id="Layer_1" xmlns="http://www.w3.org/2000/svg" xmlns:xlink="http://www.w3.org/1999/xlink" x="0px" y="0px"
	 width="24px" height="24px" viewBox="0 0 24 24" style="enable-background:new 0 0 24 24;" xml:space="preserve">
<path d="M20,2.6H4c-0.8,0-1.4,0.6-1.4,1.3c0,0,0,0,0,0v16.1c0,0.8,0.6,1.4,1.4,1.3c0,0,0,0,0,0H20c0.8,0,1.4-0.6,1.4-1.3
	c0,0,0,0,0,0V3.9C21.3,3.2,20.7,2.6,20,2.6C20,2.6,20,2.6,20,2.6z M8.3,18.3H5.5V9.9h2.8V18.3z M6.9,8.7L6.9,8.7
	C6.1,8.7,5.5,8,5.5,7.2s0.7-1.5,1.5-1.5c0.8-0.1,1.5,0.5,1.6,1.3S8.1,8.6,7.3,8.7C7.1,8.7,7,8.7,6.9,8.7z M18.5,18.3h-2.8v-4.5
	c0-1.1-0.4-1.9-1.4-1.9c-0.6,0-1.2,0.4-1.4,1c-0.1,0.2-0.1,0.5-0.1,0.7v4.7H9.9c0,0,0-7.7,0-8.5h2.8v1.2c0.5-0.9,1.5-1.4,2.5-1.4
	c1.9,0,3.2,1.2,3.2,3.8V18.3z"/>
</svg>
