<svg xmlns="http://www.w3.org/2000/svg" viewBox="0 0 24 24" >
<path d="M5.7,13.2c-0.6,0-1-0.4-1-1c0-3.3,2.7-6,6-6c0.6,0,1,0.4,1,1s-0.4,1-1,1c-2.2,0-4,1.8-4,4C6.7,12.8,6.3,13.2,5.7,13.2z"/>
<path d="M23.1,3c-0.9-1.1-1.8-1.3-2.5-1.2c-1,0.1-1.8,0.7-2.3,1.2l-0.6-0.6c-0.4-0.4-1-0.4-1.4,0l-0.9,1c-1.4-0.7-2.9-1.1-4.6-1.1
	c-5.5,0-10,4.5-10,10s4.5,10,10,10s10-4.5,10-10c0-1.7-0.5-3.4-1.2-4.8l1-1c0.2-0.2,0.3-0.5,0.3-0.7c0-0.3-0.1-0.5-0.3-0.7l-0.7-0.7
	c0.3-0.3,0.7-0.6,1-0.6c0.1,0,0.4,0,0.8,0.5c0.3,0.4,1,0.5,1.4,0.1C23.4,4.1,23.4,3.4,23.1,3z M18.7,12.2c0,4.4-3.6,8-8,8
	s-8-3.6-8-8s3.6-8,8-8c1.1,0,2.1,0.2,3.1,0.6c0.6,0.3,1.2,0.6,1.8,1L17,4.5l0.8,0.8c0,0,0,0,0,0c0,0,0,0,0,0l0.5,0.5l-1.4,1.4
	c0.4,0.5,0.8,1.1,1.1,1.8C18.4,9.9,18.7,11.1,18.7,12.2z"/>
</svg>
